<svg width="24" height="24" viewBox="0 0 24 24" fill="none" xmlns="http://www.w3.org/2000/svg">
<path d="M23.3465 3.38803C23.218 2.59115 22.4291 1.86459 21.6421 1.80928C16.9644 1.51491 14.4374 3.19819 13.0551 4.53694C12.7733 4.82319 12.6166 5.20963 12.6196 5.61131C12.6471 10.9013 12.639 16.1912 12.5952 21.4808C12.5924 22.101 13.2412 22.4469 13.708 22.0621C15.2108 20.8058 17.8551 19.5182 22.1605 18.9571C22.9279 18.8502 23.6137 18.1794 23.6929 17.444C24.1963 12.7638 24.0798 8.0377 23.3465 3.38803Z" fill="white"/>
<path d="M1.83682 18.9566C6.14229 19.5191 8.78651 20.803 10.2893 22.0621C10.7538 22.4497 11.4045 22.1033 11.4021 21.4808C11.3581 16.1918 11.3499 10.9019 11.3778 5.61131C11.3797 5.41235 11.3422 5.21499 11.2674 5.03059C11.1927 4.8462 11.0822 4.67842 10.9423 4.53694C9.56229 3.19819 7.03338 1.51491 2.3576 1.80928C1.57104 1.86225 0.782131 2.59069 0.653225 3.38803C-0.0801183 8.03849 -0.196592 12.7654 0.306819 17.4463C0.387444 18.1794 1.07182 18.8526 1.83682 18.9566Z" fill="white"/>
</svg>
