<svg width="32" height="32" viewBox="0 0 32 32" fill="none" xmlns="http://www.w3.org/2000/svg"><g id="Group"><g id="Group_2"><path id="Vector" d="M30.9558 10.6095C25.8767 8.88365 20.9798 7.68553 16 10.9695C11.0203 7.68553 6.12331 8.88372 1.04419 10.6095C0.42 10.8216 0 11.4092 0 12.0697V30.536C0 31.5314 0.972937 32.237 1.9185 31.926C5.57144 30.7244 9.18237 29.3722 12.7588 30.3684C13.4713 30.5668 14.1201 30.9528 14.6351 31.4836C15.2703 32.1382 16.699 32.179 17.3478 31.5353C17.9156 30.972 18.5984 30.5358 19.372 30.3325C22.9057 29.4038 26.4731 30.7391 30.0815 31.926C31.027 32.237 32 31.5315 32 30.5361V12.0697C32 11.4092 31.58 10.8216 30.9558 10.6095Z" fill="#FFC535"></path><g id="Group_3"><path id="Vector_2" d="M29.1662 10.7271C24.6948 9.20815 20.3839 8.15352 16 11.0441C11.6161 8.15352 7.30511 9.20815 2.8338 10.7271C2.28424 10.9138 1.91455 11.431 1.91455 12.0124V27.6996C1.91455 28.5772 2.7728 29.1962 3.60643 28.922C7.56874 27.6188 11.4749 26.7948 15.3372 29.0762C15.7467 29.318 16.2533 29.318 16.6628 29.0762C20.5252 26.7948 24.4314 27.6188 28.3936 28.922C29.2272 29.1962 30.0855 28.5772 30.0855 27.6996V12.0124C30.0854 11.431 29.7157 10.9138 29.1662 10.7271Z" fill="#CFDBE4"></path><path id="Vector_3" d="M30.0854 26.2767C25.3141 24.614 20.6261 23.1042 16 26.2767V7.82192C20.3839 4.93135 24.6949 5.98598 29.1662 7.50498C29.7157 7.69167 30.0854 8.20885 30.0854 8.79023V26.2767Z" fill="#F7F9FA"></path><g id="Group_4"><path id="Vector_4" d="M29.166 7.505C26.3204 6.53825 23.5396 5.75963 20.7637 6.06632C22.6882 6.25857 24.6239 6.83682 26.5905 7.505C27.1401 7.69169 27.5098 8.20888 27.5098 8.79025V25.418C28.3657 25.6815 29.2241 25.9766 30.0852 26.2768V8.79025C30.0853 8.20888 29.7156 7.69169 29.166 7.505Z" fill="#ECF1F5"></path></g><path id="Vector_5" d="M1.91455 26.2767C6.68586 24.614 11.3739 23.1042 16 26.2767V7.82192C11.6161 4.93135 7.30511 5.98598 2.8338 7.50498C2.28424 7.69167 1.91455 8.20885 1.91455 8.79023V26.2767Z" fill="#F7F9FA"></path><g id="Group_5"><path id="Vector_6" d="M8.66064 6.06634C10.2464 6.24159 11.8306 6.77097 13.4245 7.8219V24.9676C14.2851 25.2627 15.1436 25.6895 15.9999 26.2767V7.8219C13.5443 6.20272 11.1115 5.82147 8.66064 6.06634Z" fill="#ECF1F5"></path></g><g id="Group_6"><g id="Group_7"><path id="Vector_7" d="M4.48976 10.1515C4.28607 10.1515 4.0967 10.0217 4.03051 9.81743C3.94826 9.56375 4.0872 9.29137 4.34088 9.20918C6.75701 8.42562 8.44363 8.09131 9.98051 8.09131C11.2986 8.09131 12.492 8.35012 13.6291 8.88262C13.8706 8.99568 13.9748 9.28318 13.8617 9.52475C13.7486 9.76631 13.4612 9.87031 13.2196 9.75725C12.2134 9.28612 11.1539 9.05712 9.98051 9.05712C8.55063 9.05712 6.95313 9.37737 4.63876 10.1279C4.58932 10.1439 4.53907 10.1515 4.48976 10.1515Z" fill="#8B90A7"></path><path id="Vector_8" d="M4.48976 12.4869C4.28607 12.4869 4.0967 12.3571 4.03051 12.1529C3.94826 11.8992 4.0872 11.6268 4.34088 11.5446C6.75701 10.7611 8.44363 10.4268 9.98051 10.4268C11.2986 10.4268 12.492 10.6856 13.6291 11.2181C13.8706 11.3311 13.9748 11.6186 13.8617 11.8602C13.7486 12.1018 13.4612 12.2058 13.2196 12.0927C12.2134 11.6216 11.1539 11.3926 9.98051 11.3926C8.55063 11.3926 6.95313 11.7128 4.63876 12.4633C4.58932 12.4793 4.53907 12.4869 4.48976 12.4869Z" fill="#8B90A7"></path><path id="Vector_9" d="M4.48976 14.8224C4.28607 14.8224 4.0967 14.6926 4.03051 14.4883C3.94826 14.2346 4.0872 13.9623 4.34088 13.8801C6.75701 13.0965 8.44363 12.7622 9.98051 12.7622C11.2986 12.7622 12.492 13.021 13.6291 13.5535C13.8706 13.6666 13.9748 13.9541 13.8617 14.1956C13.7486 14.4371 13.4612 14.5412 13.2196 14.4281C12.2134 13.957 11.1539 13.728 9.98051 13.728C8.55063 13.728 6.95313 14.0483 4.63876 14.7988C4.58932 14.8148 4.53907 14.8224 4.48976 14.8224Z" fill="#8B90A7"></path></g><g id="Group_8"><path id="Vector_10" d="M27.5099 18.5134C27.4606 18.5134 27.4104 18.5058 27.3609 18.4897C25.0465 17.7392 23.449 17.4189 22.0191 17.4189C20.8457 17.4189 19.7862 17.6479 18.7801 18.1191C18.5385 18.2322 18.2511 18.1281 18.1379 17.8866C18.0249 17.6451 18.129 17.3575 18.3705 17.2444C19.5076 16.7119 20.7011 16.4531 22.0191 16.4531C23.556 16.4531 25.2426 16.7874 27.6588 17.571C27.9124 17.6533 28.0514 17.9256 27.9691 18.1793C27.903 18.3836 27.7136 18.5134 27.5099 18.5134Z" fill="#8B90A7"></path><path id="Vector_11" d="M27.5099 20.8488C27.4606 20.8488 27.4104 20.8412 27.3609 20.8251C25.0465 20.0746 23.449 19.7544 22.0191 19.7544C20.8457 19.7544 19.7862 19.9834 18.7801 20.4545C18.5385 20.5676 18.2511 20.4635 18.1379 20.222C18.0249 19.9805 18.129 19.6929 18.3705 19.5799C19.5076 19.0474 20.7011 18.7886 22.0191 18.7886C23.556 18.7886 25.2426 19.1229 27.6588 19.9065C27.9124 19.9887 28.0514 20.261 27.9691 20.5147C27.903 20.719 27.7136 20.8488 27.5099 20.8488Z" fill="#8B90A7"></path><path id="Vector_12" d="M27.5099 23.1843C27.4606 23.1843 27.4104 23.1766 27.3609 23.1606C25.0465 22.4101 23.449 22.0898 22.0191 22.0898C20.8457 22.0898 19.7862 22.3188 18.7801 22.79C18.5385 22.903 18.2511 22.799 18.1379 22.5575C18.0249 22.316 18.129 22.0284 18.3705 21.9153C19.5076 21.3828 20.7011 21.124 22.0191 21.124C23.556 21.124 25.2426 21.4583 27.6588 22.2419C27.9124 22.3241 28.0514 22.5965 27.9691 22.8501C27.903 23.0544 27.7136 23.1843 27.5099 23.1843Z" fill="#8B90A7"></path></g></g></g></g><g id="Group_9"><path id="Vector_13" d="M16.2351 0.139848L16.782 1.13985C16.8066 1.18479 16.8436 1.22179 16.8885 1.24635L17.8885 1.79328C18.0743 1.89491 18.0743 2.16178 17.8885 2.26341L16.8885 2.81035C16.8436 2.83491 16.8066 2.87191 16.782 2.91685L16.2351 3.91685C16.1335 4.10266 15.8666 4.10266 15.765 3.91685L15.218 2.91685C15.1935 2.87191 15.1565 2.83491 15.1115 2.81035L14.1115 2.26341C13.9257 2.16178 13.9257 1.89491 14.1115 1.79328L15.1115 1.24635C15.1565 1.22179 15.1935 1.18479 15.218 1.13985L15.765 0.139848C15.8666 -0.0459648 16.1335 -0.0459648 16.2351 0.139848Z" fill="#FFD15B"></path><g id="Group_10"><path id="Vector_14" d="M23.2776 10.0241L23.8245 11.0241C23.8491 11.0691 23.8861 11.1061 23.931 11.1306L24.931 11.6776C25.1168 11.7792 25.1168 12.0461 24.931 12.1477L23.931 12.6946C23.8861 12.7192 23.8491 12.7562 23.8245 12.8011L23.2776 13.8011C23.1759 13.9869 22.9091 13.9869 22.8074 13.8011L22.2605 12.8011C22.2359 12.7562 22.1989 12.7192 22.154 12.6946L21.154 12.1477C20.9682 12.0461 20.9682 11.7792 21.154 11.6776L22.154 11.1306C22.1989 11.1061 22.2359 11.0691 22.2605 11.0241L22.8074 10.0241C22.9091 9.83831 23.1759 9.83831 23.2776 10.0241Z" fill="#FFD15B"></path><path id="Vector_15" d="M9.19212 17.3543L9.73906 18.3543C9.76362 18.3992 9.80062 18.4362 9.84556 18.4608L10.8456 19.0077C11.0314 19.1093 11.0314 19.3762 10.8456 19.4778L9.84556 20.0248C9.80062 20.0493 9.76362 20.0863 9.73906 20.1313L9.19212 21.1313C9.0905 21.3171 8.82362 21.3171 8.722 21.1313L8.17506 20.1313C8.1505 20.0863 8.1135 20.0493 8.06856 20.0248L7.06856 19.4778C6.88275 19.3762 6.88275 19.1093 7.06856 19.0077L8.06856 18.4608C8.1135 18.4362 8.1505 18.3992 8.17506 18.3543L8.722 17.3543C8.82362 17.1684 9.0905 17.1684 9.19212 17.3543Z" fill="#FFD15B"></path></g></g></g></svg>
