<svg width="24" height="24" viewBox="0 0 24 24" fill="none" xmlns="http://www.w3.org/2000/svg">
<g clip-path="url(#clip0_2774_125556)">
<path d="M13.0624 0C5.84326 0 0 5.84228 0 13.0624C0 13.4511 0.315094 13.7662 0.703783 13.7662H13.0624C13.4511 13.7662 13.7662 13.4511 13.7662 13.0624V0.703783C13.7662 0.315094 13.4511 0 13.0624 0Z" fill="white"/>
<path d="M8.05545 15.8012C7.93198 15.5757 7.6953 15.4355 7.43824 15.4355H3.27601C3.052 15.4355 2.84129 15.5422 2.70873 15.7228C2.57612 15.9035 2.5375 16.1364 2.60458 16.3501C3.93016 20.5721 7.75357 23.7111 12.3588 24.0002V18.7249C10.5525 18.5008 8.9442 17.4237 8.05545 15.8012Z" fill="white"/>
<path d="M16.3501 2.60453C16.1364 2.5375 15.9034 2.57618 15.7228 2.70869C15.5422 2.8413 15.4355 3.05196 15.4355 3.27602V7.4382C15.4355 7.69522 15.5757 7.93184 15.8012 8.05536C17.4236 8.9442 18.5007 10.5525 18.7249 12.3587H24.0002C23.7104 7.7435 20.5621 3.92702 16.3501 2.60453Z" fill="white"/>
<path d="M18.7254 13.7666C18.4061 16.3517 16.3512 18.4066 13.7661 18.7259V23.9999C19.2577 23.6542 23.6532 19.2657 23.9994 13.7666H18.7254Z" fill="white"/>
</g>
<defs>
<clipPath id="clip0_2774_125556">
<rect width="24" height="24" fill="white"/>
</clipPath>
</defs>
</svg>
