<svg width="24" height="24" viewBox="0 0 24 24" fill="none" xmlns="http://www.w3.org/2000/svg">
<path d="M13.1325 19.2225C13.1325 17.5959 13.7658 16.0664 14.9161 14.9161C16.0664 13.7658 17.5955 13.1325 19.2225 13.1325C20.558 13.1325 21.8278 13.56 22.8764 14.3494C22.9345 13.5 22.9706 12.5498 22.972 11.4862C22.9692 8.81109 22.7447 6.85219 22.5052 5.41266C22.0861 3.04078 19.9317 0.886406 17.5598 0.467344C16.1203 0.227344 14.1614 0.0028125 11.4858 0C8.81062 0.0028125 6.85125 0.227344 5.41172 0.466875C3.04031 0.885937 0.885937 3.04031 0.466875 5.41219C0.227344 6.85172 0.00328125 8.81062 0 11.4858C0.00328125 14.1609 0.227344 16.1203 0.466875 17.5598C0.885937 19.9317 3.04031 22.0861 5.41219 22.5052C6.85172 22.7447 8.81062 22.9687 11.4862 22.972C12.5498 22.9706 13.5 22.9345 14.3494 22.8764C13.56 21.8278 13.1325 20.5584 13.1325 19.2225ZM5.81062 5.55094H17.1614C17.8955 5.55094 18.4908 6.14625 18.4908 6.88031C18.4908 7.61437 17.8955 8.20969 17.1614 8.20969H5.81062C5.07656 8.20969 4.48125 7.61437 4.48125 6.88031C4.48125 6.14625 5.07656 5.55094 5.81062 5.55094ZM5.81062 13.7611C5.07656 13.7611 4.48125 13.1658 4.48125 12.4317C4.48125 11.6977 5.07656 11.1023 5.81062 11.1023H12.4739C13.208 11.1023 13.8033 11.6977 13.8033 12.4317C13.8033 13.1658 13.208 13.7611 12.4739 13.7611H5.81062Z" fill="white"/>
<path d="M19.2223 14.4453C16.5837 14.4453 14.4448 16.5842 14.4448 19.2228C14.4448 21.8614 16.5837 24.0003 19.2223 24.0003C21.8609 24.0003 23.9998 21.8614 23.9998 19.2228C23.9998 16.5842 21.8609 14.4453 19.2223 14.4453ZM20.1129 21.5933C20.1129 22.085 19.714 22.4839 19.2223 22.4839C18.7306 22.4839 18.3317 22.085 18.3317 21.5933V19.2434C18.3317 18.7517 18.7306 18.3528 19.2223 18.3528C19.714 18.3528 20.1129 18.7517 20.1129 19.2434V21.5933ZM20.0764 17.337C20.0436 17.5227 19.8748 17.6914 19.6892 17.7242C19.5767 17.743 19.423 17.7603 19.2134 17.7608C19.0039 17.7608 18.8506 17.743 18.7376 17.7242C18.552 17.6914 18.3833 17.5227 18.3504 17.337C18.3317 17.2245 18.3144 17.0708 18.3139 16.8613C18.3139 16.6517 18.3317 16.4984 18.3504 16.3855C18.3833 16.1998 18.552 16.0311 18.7376 15.9983C18.8501 15.9795 19.0039 15.9622 19.2134 15.9617C19.423 15.9617 19.5762 15.9795 19.6892 15.9983C19.8748 16.0311 20.0436 16.1998 20.0764 16.3855C20.0951 16.498 20.1125 16.6517 20.1129 16.8613C20.1129 17.0708 20.0951 17.2241 20.0764 17.337Z" fill="white"/>
</svg>
