<svg width="24" height="24" viewBox="0 0 24 24" fill="none" xmlns="http://www.w3.org/2000/svg">
<path d="M4.93825 17C4.81483 17.0001 4.69265 17.0246 4.57868 17.072C4.46472 17.1194 4.36121 17.1888 4.27408 17.2762C4.18694 17.3636 4.11789 17.4673 4.07086 17.5815C4.02384 17.6956 3.99976 17.8178 4 17.9413C3.99966 18.0647 4.02366 18.1871 4.07065 18.3013C4.11763 18.4155 4.18667 18.5193 4.27381 18.6068C4.36096 18.6943 4.4645 18.7637 4.57851 18.8112C4.69252 18.8586 4.81477 18.8831 4.93825 18.8832C5.06168 18.8832 5.18388 18.8587 5.29783 18.8112C5.41178 18.7638 5.51524 18.6943 5.60228 18.6068C5.68931 18.5193 5.75821 18.4154 5.80501 18.3012C5.85181 18.187 5.8756 18.0647 5.875 17.9413C5.8755 17.8179 5.85164 17.6956 5.80479 17.5815C5.75795 17.4674 5.68904 17.3636 5.60201 17.2762C5.51499 17.1887 5.41156 17.1193 5.29766 17.0719C5.18376 17.0245 5.06162 17.0001 4.93825 17Z" fill="white"/>
<path d="M23.0546 9.27675H22.6385C22.335 9.27675 22.1225 8.97701 22.2229 8.69062C22.392 8.31637 22.3496 8.01075 22.1318 7.986H21.1524C20.9291 7.986 20.7635 7.77894 20.8125 7.56112C20.9194 7.083 20.7671 6.69525 20.4731 6.69525H20.2895C19.7692 6.69525 19.3653 6.24158 19.4254 5.72475C19.533 5.24662 19.3804 4.85887 19.0864 4.85887H18.5629C17.9477 4.85887 17.4688 4.11337 16.8536 4.11337H10.3969C9.6983 4.11337 9.132 3.54707 9.132 2.8485C9.132 2.31075 8.83613 1.875 8.46975 1.875H1.41225C1.04588 1.875 0.75 2.31075 0.75 2.8485V18.125C0.75 20.3341 2.54086 22.125 4.75 22.125H14.9614C16.5191 22.125 17.9351 21.2207 18.5904 19.8075L23.1461 9.98137C23.3153 9.60712 23.2729 9.30188 23.0546 9.27675ZM16.8127 17.3749C16.8127 19.5841 15.0218 21.375 12.8127 21.375H5.45313C3.24399 21.375 1.45312 19.5841 1.45312 17.375V2.8485C1.45312 2.70744 1.58746 2.625 1.72852 2.625H8.1526C8.29399 2.625 8.4285 2.7071 8.4285 2.8485C8.4285 3.9617 9.33093 4.86412 10.4441 4.86412H16.5366C16.6776 4.86412 16.8124 4.94665 16.8124 5.08763L16.8127 17.3749ZM17.5159 6.18295C17.5159 5.86631 17.7726 5.60962 18.0892 5.60962H18.7075C18.72 5.60962 18.7297 5.62048 18.7283 5.63287L17.5159 15.9911V6.18295ZM19.1827 7.81331C19.2071 7.60371 19.3846 7.44562 19.5957 7.44562C19.8624 7.44562 20.0601 7.69313 20.0012 7.95323L18.2824 15.5445L19.1827 7.81331ZM20.474 9.0573C20.5165 8.86962 20.6832 8.73638 20.8757 8.73638C21.1594 8.73638 21.3582 9.01662 21.2643 9.28442L18.8861 16.0718L20.474 9.0573ZM19.9429 15.1976L21.6949 10.199C21.731 10.0958 21.8285 10.0268 21.9378 10.0268C22.1259 10.0268 22.2505 10.2219 22.1714 10.3925L19.9429 15.1976Z" fill="white" stroke="white" stroke-width="0.5"/>
<path d="M8.93676 17C8.81338 17 8.69122 17.0245 8.5773 17.0718C8.46337 17.1192 8.35993 17.1886 8.27289 17.2761C8.18586 17.3635 8.11695 17.4673 8.07012 17.5814C8.02329 17.6956 7.99947 17.8179 8.00001 17.9413C8.00001 18.1899 8.09878 18.4283 8.2746 18.6042C8.45041 18.78 8.68887 18.8788 8.93751 18.8788C9.18615 18.8788 9.42461 18.78 9.60042 18.6042C9.77624 18.4283 9.87501 18.1899 9.87501 17.9413C9.87521 17.8178 9.85109 17.6956 9.80405 17.5815C9.757 17.4674 9.68795 17.3637 9.60082 17.2763C9.5137 17.1889 9.41021 17.1195 9.29627 17.0721C9.18233 17.0247 9.06017 17.0002 8.93676 17Z" fill="white"/>
<path d="M12.9375 17.25C13.3161 17.25 13.6249 17.5585 13.625 17.9414C13.625 18.3244 13.3162 18.6328 12.9375 18.6328C12.5588 18.6328 12.25 18.3244 12.25 17.9414C12.2501 17.5585 12.5589 17.25 12.9375 17.25Z" fill="white" stroke="white" stroke-width="0.5"/>
</svg>
