<svg width="24" height="24" viewBox="0 0 24 24" fill="none" xmlns="http://www.w3.org/2000/svg">
<path d="M12 1C5.92508 1 1 5.92508 1 12C1 18.0749 5.92508 23 12 23C18.0749 23 23 18.0749 23 12C23 5.92508 18.0749 1 12 1ZM11.9953 19.4615C11.6417 19.4615 11.2961 19.3567 11.0021 19.1603C10.7081 18.9639 10.479 18.6848 10.3436 18.3582C10.2082 18.0316 10.1727 17.6722 10.2416 17.3254C10.3104 16.9786 10.4805 16.6601 10.7304 16.4099C10.9803 16.1598 11.2987 15.9894 11.6454 15.9202C11.9921 15.851 12.3516 15.8862 12.6783 16.0213C13.005 16.1563 13.2844 16.3852 13.481 16.679C13.6777 16.9728 13.7829 17.3183 13.7832 17.6719C13.7834 17.9068 13.7373 18.1395 13.6476 18.3566C13.5578 18.5737 13.4262 18.771 13.2601 18.9372C13.0941 19.1035 12.8969 19.2353 12.6799 19.3253C12.4628 19.4152 12.2302 19.4615 11.9953 19.4615ZM13.7282 13.3041C13.6981 13.5804 13.5733 13.8377 13.375 14.0324C13.1741 14.2285 12.9127 14.3507 12.6334 14.3792H12.6252C12.45 14.3992 12.2739 14.4093 12.0975 14.4093C11.8862 14.4103 11.6749 14.4003 11.4646 14.3792H11.456C11.1769 14.3506 10.9156 14.2284 10.7148 14.0324C10.5165 13.8377 10.3917 13.5804 10.3616 13.3041C10.3186 12.9006 10.2971 10.0986 10.2971 9.4743C10.2971 8.84996 10.3191 6.04066 10.3616 5.63719C10.3912 5.36015 10.516 5.10197 10.7148 4.90672C10.9158 4.71099 11.177 4.58881 11.456 4.55996H11.4646C11.6749 4.53895 11.8864 4.53249 12.0975 4.54063C12.2735 4.53248 12.4499 4.53895 12.6248 4.55996H12.6334C12.913 4.58966 13.1744 4.71308 13.375 4.91016C13.5738 5.1054 13.6986 5.36358 13.7282 5.64062C13.7712 6.0441 13.7927 8.85383 13.7927 9.47773C13.7927 10.1016 13.7707 12.9023 13.7282 13.3041Z" fill="white"/>
</svg>
