<svg width="24" height="24" viewBox="0 0 24 24" fill="none" xmlns="http://www.w3.org/2000/svg"><g clip-path="url(#clip0_499_31954)"><path d="M23.3739 10.3816L20.8324 7.84007C20.6247 7.63813 20.3459 7.52606 20.0563 7.5281C19.7666 7.53014 19.4894 7.64613 19.2847 7.85097C19.0799 8.05581 18.964 8.33304 18.962 8.62268C18.9601 8.91231 19.0722 9.19108 19.2742 9.39866L20.6411 10.7655H15.3583C15.2109 10.7612 15.0642 10.7865 14.9268 10.84C14.7894 10.8934 14.6641 10.9739 14.5583 11.0766C14.4526 11.1793 14.3685 11.3022 14.3111 11.438C14.2537 11.5737 14.2241 11.7197 14.2241 11.8671C14.2241 12.0145 14.2537 12.1605 14.3111 12.2962C14.3685 12.432 14.4526 12.5549 14.5583 12.6576C14.6641 12.7603 14.7894 12.8408 14.9268 12.8942C15.0642 12.9476 15.2109 12.973 15.3583 12.9687H20.6903L19.3234 14.3355C19.1214 14.5431 19.0093 14.8219 19.0112 15.1115C19.0132 15.4012 19.1291 15.6784 19.3339 15.8832C19.5387 16.0881 19.8159 16.2041 20.1055 16.2061C20.3951 16.2081 20.6739 16.0961 20.8816 15.8941L23.3739 13.4018C23.5723 13.2034 23.7297 12.9679 23.837 12.7088C23.9444 12.4496 23.9997 12.1718 23.9997 11.8912C23.9997 11.6107 23.9444 11.3329 23.837 11.0737C23.7297 10.8145 23.5723 10.5791 23.3739 10.3807V10.3816Z" fill="#dc3545"></path><path d="M17.2874 14.3809C17.007 14.3857 16.7383 14.494 16.5331 14.685C16.3278 14.876 16.2004 15.1362 16.1755 15.4154C16.1347 15.9521 16.0939 16.1326 16.0433 16.5325C15.9698 17.0678 15.7228 17.5642 15.3402 17.9457C14.958 18.3335 14.4602 18.5865 13.9217 18.6667L13.8899 18.6709C13.5617 18.7178 13.257 18.759 12.9397 18.7965C13.0016 17.5646 13.0409 16.1406 13.0508 14.7273C13.0686 12.3901 13.0039 9.97887 12.8759 8.42262C12.7801 7.33439 12.4571 6.27837 11.9277 5.32277C11.4041 4.38152 10.7234 3.64184 10.01 3.25043L9.98798 3.23824C9.36595 2.8984 8.83907 2.61012 7.9297 2.22668C8.31688 2.21355 8.69376 2.20605 9.19532 2.20559C11.667 2.2159 12.5417 2.36402 13.7572 2.54777L13.7872 2.55246C14.3227 2.64378 14.8145 2.90492 15.1902 3.2973C15.5717 3.68628 15.8208 4.1858 15.9017 4.72465C16.0316 5.66637 16.1361 6.74027 16.1989 8.29043C16.2219 8.87449 16.7145 9.35121 17.3136 9.36527C17.9295 9.37934 18.4175 8.91059 18.3894 8.32418C18.3172 6.79981 18.1977 5.67106 18.0416 4.65199C17.892 3.65637 17.3834 2.67855 16.6344 1.89855C15.8853 1.11855 14.9286 0.577148 13.9358 0.403242L13.9053 0.397617C12.6931 0.196055 11.7397 0.0160547 9.19907 0.00292969C6.65892 0.0179297 5.76548 0.195586 4.55142 0.396211L4.52095 0.401836C3.52813 0.575273 2.57282 1.11809 1.82282 1.89668C1.07282 2.67527 0.565167 3.65309 0.411885 4.65012C0.184542 6.11777 0.0200103 8.41559 0.00266656 10.6604C-0.0146772 12.9053 0.10251 15.2003 0.306417 16.6632C0.397052 17.2867 0.613808 17.8851 0.943448 18.422C1.03501 18.6095 1.13345 18.7942 1.23876 18.9761C1.78579 19.9098 2.48845 20.6668 3.2122 21.0915L3.23423 21.1047C4.11642 21.6203 4.81579 22.037 6.63876 22.8156C8.45657 23.5843 9.12313 23.739 9.97298 23.9406L9.99407 23.9453C10.6888 24.1075 11.3445 23.8839 11.8527 23.3284C12.3449 22.7903 12.6772 21.9657 12.7855 21.0039C13.2313 20.9514 13.6292 20.8914 14.06 20.8243L14.0909 20.8192C15.103 20.6612 16.0724 20.1386 16.8242 19.3778C17.5761 18.617 18.0749 17.6532 18.2122 16.659C18.2713 16.2287 18.3172 16.0173 18.3631 15.4647C18.4133 14.8623 17.9192 14.3682 17.2874 14.3809Z" fill="#dc3545"></path><path d="M12.9416 18.7971C13.0034 17.5652 13.0428 16.1411 13.0527 14.7278C13.0705 12.3907 13.0058 9.97941 12.8778 8.42316C12.782 7.33494 12.4589 6.27891 11.9295 5.32332C11.4059 4.38207 10.7253 3.64238 10.0119 3.25097L9.98985 3.23879C9.36782 2.89894 8.84095 2.61066 7.93157 2.22722C7.93157 2.22722 5.2686 1.03801 3.54829 1.17535C2.42329 1.26535 1.82282 1.89722 1.82282 1.89722C1.07376 2.67676 0.565167 3.65316 0.411885 4.65019C0.184542 6.11785 0.0200103 8.41566 0.00266656 10.6605C-0.0146772 12.9053 0.10251 15.2003 0.306417 16.6633C0.397052 17.2868 0.613808 17.8852 0.943448 18.4221C1.03501 18.6096 1.13345 18.7943 1.23876 18.9761C1.78579 19.9099 2.48845 20.6669 3.2122 21.0916L3.23423 21.1047C4.11642 21.6203 4.81579 22.0371 6.63876 22.8157C8.45657 23.5844 9.12314 23.7391 9.97298 23.9407L9.99407 23.9453C10.6888 24.1075 11.3445 23.8839 11.8527 23.3285C12.3449 22.7903 12.6772 21.9658 12.7855 21.0039" fill="#FFC73A"></path><path d="M13.0542 13.4228C13.0438 11.5235 12.9806 9.6897 12.8779 8.42267C12.7821 7.33445 12.459 6.27843 11.9296 5.32283C11.406 4.38158 10.7254 3.64189 10.012 3.25049L9.98993 3.2383C9.3679 2.89845 8.84103 2.61017 7.93165 2.22674C7.93165 2.22674 5.26868 1.03752 3.54837 1.17486C2.42337 1.26486 1.8229 1.89674 1.8229 1.89674C1.07384 2.67674 0.565245 3.65314 0.411964 4.65017C0.18462 6.11783 0.0200891 8.41564 0.0027454 10.6605C-0.0108484 11.9875 0.0266517 13.3324 0.101652 14.5122C2.1681 15.4761 4.45074 15.8826 6.7229 15.6915C8.99506 15.5004 11.1777 14.7183 13.0542 13.4228Z" fill="#FFD56B"></path></g><defs><clipPath id="clip0_499_31954"><rect width="24" height="24" fill="white"></rect></clipPath></defs></svg>
