<svg width="24" height="24" viewBox="0 0 24 24" fill="none" xmlns="http://www.w3.org/2000/svg">
<path fill-rule="evenodd" clip-rule="evenodd" d="M22.6632 12.953C21.721 9.36987 19.0426 6.52783 21.7365 3.89065C21.8578 3.77073 21.9356 3.61373 21.9575 3.44457C21.9794 3.2754 21.9442 3.10376 21.8574 2.9569L20.5538 0.743929C20.461 0.583193 20.3114 0.462993 20.1345 0.406958C19.9575 0.350923 19.766 0.363108 19.5976 0.441116C17.0007 1.65987 14.3476 1.53471 12.121 0.0375223C12.0857 0.0137027 12.0441 0.000976562 12.0015 0.000976562C11.9589 0.000976562 11.9173 0.0137027 11.882 0.0375223C9.65635 1.53424 6.99947 1.66127 4.4026 0.440647C4.23409 0.362898 4.04261 0.3509 3.86571 0.407005C3.68881 0.463109 3.53925 0.583271 3.44635 0.743929L2.14275 2.9569C2.05599 3.10376 2.02077 3.2754 2.04268 3.44457C2.06459 3.61373 2.14238 3.77073 2.26369 3.89065C4.9576 6.52783 2.27916 9.3694 1.33697 12.953C0.230723 16.966 2.16947 19.7447 4.64963 21.0877C6.96807 22.3242 9.80588 22.3622 11.5871 23.8505C11.7023 23.9471 11.8477 24 11.998 24C12.1483 24 12.2937 23.9471 12.4088 23.8505C14.1938 22.3622 17.0298 22.3242 19.3463 21.0877C21.8307 19.7447 23.7695 16.9688 22.6632 12.953ZM12.0001 18C10.8134 18 9.65337 17.6481 8.66668 16.9888C7.67998 16.3296 6.91095 15.3925 6.45682 14.2961C6.0027 13.1998 5.88388 11.9934 6.11539 10.8295C6.3469 9.6656 6.91834 8.5965 7.75746 7.75738C8.59657 6.91827 9.66567 6.34682 10.8296 6.11531C11.9934 5.8838 13.1998 6.00262 14.2962 6.45675C15.3926 6.91087 16.3296 7.67991 16.9889 8.6666C17.6482 9.6533 18.0001 10.8133 18.0001 12C18.0005 12.7881 17.8455 13.5684 17.5441 14.2966C17.2427 15.0247 16.8008 15.6863 16.2436 16.2435C15.6863 16.8007 15.0248 17.2427 14.2966 17.5441C13.5685 17.8454 12.7881 18.0004 12.0001 18Z" fill="white"/>
<path d="M12.4187 8.52049C12.7534 9.02814 13.1022 9.53861 13.4542 10.0463C13.5248 10.1476 13.6268 10.2229 13.7444 10.2605C14.3275 10.448 14.9162 10.6355 15.5031 10.8183C15.8645 10.9331 16.0187 11.3428 15.7951 11.6203C15.4295 12.0745 15.0512 12.5452 14.6701 13.0266C14.5941 13.1213 14.5523 13.2389 14.5516 13.3603C14.5516 13.956 14.5384 14.551 14.5122 15.1453C14.4944 15.5091 14.1259 15.7992 13.8011 15.6947C13.2691 15.5231 12.723 15.3328 12.1722 15.1322C12.0614 15.0919 11.9399 15.0919 11.8291 15.1322C11.2759 15.3342 10.7322 15.5245 10.2001 15.6947C9.8753 15.7992 9.50687 15.5072 9.48905 15.1453C9.46374 14.5516 9.45062 13.9566 9.44968 13.3603C9.4489 13.2389 9.40711 13.1213 9.33108 13.0266C8.94952 12.5475 8.57124 12.0774 8.20608 11.6203C7.98062 11.3428 8.13671 10.9331 8.49812 10.8183C9.08687 10.6336 9.67374 10.4456 10.2569 10.2605C10.3745 10.2229 10.4764 10.1476 10.547 10.0463C10.8991 9.53861 11.2501 9.02814 11.5825 8.52049C11.6265 8.44915 11.688 8.39025 11.7612 8.3494C11.8344 8.30855 11.9168 8.28711 12.0006 8.28711C12.0844 8.28711 12.1669 8.30855 12.24 8.3494C12.3132 8.39025 12.3747 8.44915 12.4187 8.52049Z" fill="white"/>
</svg>
