<svg width="24" height="24" viewBox="0 0 24 24" fill="none" xmlns="http://www.w3.org/2000/svg"><path d="M23.784 9.93741C23.6641 9.33835 23.1573 8.86491 22.533 8.76553C20.8178 8.49647 19.6117 6.90929 19.8034 5.22694C19.8294 4.99902 19.8812 4.77478 19.9576 4.5585C20.1564 3.98757 19.9525 3.32803 19.4617 2.9146C18.4245 2.01944 17.2485 1.29908 15.9798 0.781785C15.7031 0.665151 15.3955 0.644093 15.1054 0.721943C14.8154 0.799793 14.5597 0.972106 14.3786 1.21163C13.3745 2.55366 11.44 2.78897 10.1336 1.74132C9.94146 1.58687 9.7695 1.40891 9.62171 1.21163C9.44062 0.972106 9.18484 0.799793 8.89484 0.721943C8.60483 0.644093 8.29715 0.665151 8.02046 0.781785C6.85026 1.25809 5.75835 1.9077 4.78139 2.70882C4.26577 3.12694 4.05202 3.81225 4.26108 4.40241C4.84561 5.95257 4.05624 7.77038 2.45264 8.43366C2.16693 8.55286 1.86557 8.63037 1.5578 8.66382C0.911862 8.74397 0.37608 9.22163 0.245299 9.83803C-0.0486608 11.1414 -0.0749734 12.4908 0.167955 13.8046C0.281393 14.4412 0.824205 14.9408 1.48983 15.0233C3.20546 15.2052 4.48139 16.7221 4.37171 18.4101C4.3505 18.7492 4.27122 19.0822 4.13733 19.3944C3.88374 19.9808 4.08061 20.6919 4.60608 21.1241C5.63633 22.0037 6.80075 22.7127 8.05514 23.2241C8.2109 23.2839 8.37546 23.3174 8.54217 23.3235C8.76809 23.3279 8.99146 23.2751 9.19151 23.1701C9.39156 23.065 9.5618 22.9111 9.68639 22.7226C9.95344 22.3215 10.3138 21.9912 10.7366 21.7601C11.1595 21.5289 11.632 21.4039 12.1138 21.3956C12.5956 21.3874 13.0722 21.4962 13.5027 21.7127C13.9332 21.9292 14.3047 22.2469 14.5853 22.6387C14.7655 22.8949 15.0296 23.0802 15.3318 23.1625C15.6341 23.2448 15.9556 23.219 16.2409 23.0896C17.3872 22.5812 18.4535 21.9089 19.4064 21.0937C19.9061 20.6718 20.1095 19.9963 19.8953 19.4179C19.293 17.8743 20.0626 16.0494 21.6564 15.3712C21.9258 15.2553 22.2096 15.1765 22.5001 15.1368C23.1386 15.0388 23.6565 14.5546 23.7747 13.9419C23.9132 13.3016 23.9888 12.6493 24.0001 11.9943C24 11.303 23.9276 10.6136 23.784 9.93741ZM12.0001 15.9941C9.80592 15.9941 8.00217 14.1899 8.0003 11.9943C7.99842 9.79866 9.80592 7.99585 12.0001 7.99397C14.1944 7.9921 15.9981 9.79866 16 11.9943C16.0019 14.1899 14.1944 15.9923 12.0001 15.9941Z" fill="#FFC73A"></path><path d="M18.1497 1.92553C17.4668 1.47216 16.7398 1.08896 15.9798 0.781785C15.7031 0.665151 15.3955 0.644093 15.1054 0.721943C14.8154 0.799793 14.5597 0.972106 14.3786 1.21163C13.3745 2.55366 11.44 2.78897 10.1336 1.74132C9.94146 1.58687 9.7695 1.40891 9.62171 1.21163C9.44062 0.972106 9.18484 0.799793 8.89484 0.721943C8.60483 0.644093 8.29715 0.665151 8.02046 0.781785C6.85026 1.25809 5.75835 1.9077 4.78139 2.70882C4.26577 3.12694 4.05202 3.81225 4.26108 4.40241C4.84561 5.95257 4.05624 7.77038 2.45264 8.43366C2.16693 8.55286 1.86557 8.63037 1.5578 8.66382C0.911862 8.74397 0.37608 9.22163 0.245299 9.83803C-0.0486608 11.1414 -0.0749734 12.4908 0.167955 13.8046C0.281393 14.4412 0.824205 14.9408 1.48983 15.0233C3.20546 15.2052 4.48139 16.7221 4.37171 18.4101C4.36655 18.4949 4.35764 18.5788 4.34546 18.6623C4.76921 18.7041 5.19858 18.7251 5.63358 18.7251C12.8472 18.7251 18.6953 12.8769 18.6953 5.66335C18.6956 4.39754 18.5118 3.13843 18.1497 1.92553ZM12.0001 15.9941C9.80592 15.9941 8.00217 14.1899 8.0003 11.9943C7.99842 9.79866 9.80592 7.99585 12.0001 7.99397C14.1944 7.9921 15.9981 9.79866 16 11.9943C16.0019 14.1899 14.1944 15.9923 12.0001 15.9941Z" fill="#FFD56B"></path></svg>
