<svg width="24" height="24" viewBox="0 0 24 24" fill="none" xmlns="http://www.w3.org/2000/svg">
<g clip-path="url(#clip0_2774_125596)">
<path d="M23.4486 8.21496C23.2049 7.40262 22.4769 6.72199 21.8216 6.69434C21.5398 6.6834 21.2576 6.6961 20.9779 6.7323C19.8313 2.84637 16.2407 0.00292969 11.9999 0.00292969C7.75912 0.00292969 4.16849 2.84637 3.02052 6.7323C2.74083 6.6961 2.45859 6.6834 2.17677 6.69434C1.52052 6.72199 0.793493 7.40262 0.549743 8.21496C0.338805 8.69355 -0.0661948 11.5571 0.00927395 12.5017C-0.0661948 13.4462 0.337399 16.3098 0.551149 16.7884C0.796774 17.6007 1.52287 18.2809 2.17818 18.309C2.72104 18.3259 3.26342 18.2627 3.78787 18.1215C4.31231 17.9881 4.81888 17.7923 5.29677 17.5384C5.86396 17.2206 6.24787 16.4654 6.2474 15.8167C6.21881 15.414 6.12084 13.2128 6.14615 12.5017C6.12084 11.7906 6.21881 9.58934 6.2474 9.18668C6.2474 8.53793 5.86396 7.78043 5.29677 7.46496L5.16927 7.39934C6.03271 4.42934 8.76787 2.25293 11.9999 2.25293C15.2319 2.25293 17.9671 4.42934 18.8301 7.39934L18.7026 7.46496C18.1354 7.7809 17.7515 8.53793 17.7519 9.18715C17.7805 9.5898 17.8785 11.7911 17.8532 12.5021C17.8785 13.2132 17.7805 15.4145 17.7519 15.8171C17.7519 16.4659 18.1354 17.2211 18.7026 17.5389L18.8085 17.5937C18.3593 18.5283 17.7049 19.3495 16.8942 19.996C16.0835 20.6426 15.1373 21.0978 14.1261 21.3278C13.9183 20.9877 13.601 20.7284 13.2264 20.5926C12.8517 20.4567 12.442 20.4524 12.0645 20.5802C11.687 20.7081 11.3643 20.9605 11.1493 21.2961C10.9343 21.6317 10.8399 22.0304 10.8815 22.4267C10.9231 22.8231 11.0983 23.1935 11.3783 23.4771C11.6583 23.7607 12.0265 23.9406 12.4223 23.9872C12.818 24.0339 13.2179 23.9445 13.5562 23.7338C13.8945 23.5231 14.151 23.2036 14.2836 22.8278C16.9204 22.2939 19.1118 20.5112 20.2161 18.1239C20.7393 18.264 21.2803 18.3262 21.8216 18.3086C22.4779 18.2809 23.2049 17.6003 23.4486 16.7879C23.661 16.3093 24.066 13.4457 23.9905 12.5012C24.066 11.5571 23.6605 8.69355 23.4486 8.21496Z" fill="white"/>
<path d="M11.0875 12.263C11.2513 12.1011 11.3826 11.9094 11.4742 11.6982C11.5614 11.4938 11.6049 11.2366 11.6046 10.9266C11.6046 10.5066 11.5119 10.1372 11.3266 9.81848C11.146 9.5044 10.8821 9.24644 10.5639 9.07317C10.2271 8.89157 9.84922 8.79957 9.46659 8.80598C9.02034 8.80598 8.62971 8.89145 8.29471 9.06238C7.86062 9.2759 7.52504 9.64789 7.35721 10.1016C7.32431 10.1915 7.31361 10.2881 7.32601 10.383C7.33842 10.478 7.37356 10.5685 7.42846 10.647C7.48336 10.7255 7.55639 10.7895 7.64135 10.8337C7.7263 10.8779 7.82067 10.9009 7.91643 10.9008H7.95487C8.07494 10.8992 8.19182 10.8619 8.29059 10.7936C8.38935 10.7253 8.46553 10.6292 8.5094 10.5174C8.52406 10.4827 8.54065 10.4489 8.55909 10.4161C8.64326 10.2668 8.76533 10.1423 8.91299 10.0552C9.0732 9.96197 9.25596 9.91462 9.44128 9.91832C9.61649 9.9143 9.78941 9.95875 9.94096 10.0468C10.0809 10.1314 10.1945 10.2533 10.2691 10.3988C10.3496 10.5567 10.39 10.732 10.3867 10.9093C10.3817 11.0605 10.3399 11.2082 10.2649 11.3396C10.1839 11.4933 10.0449 11.6569 9.84768 11.8304L7.46081 13.9486C7.38601 14.015 7.32615 14.0965 7.28519 14.1877C7.24422 14.279 7.22307 14.3778 7.22315 14.4779C7.22278 14.5711 7.24085 14.6635 7.27633 14.7497C7.3118 14.8359 7.36398 14.9142 7.42985 14.9802C7.49573 15.0461 7.574 15.0984 7.66016 15.134C7.74633 15.1696 7.83868 15.1878 7.9319 15.1875H11.0486C11.1961 15.1875 11.3375 15.129 11.4417 15.0247C11.546 14.9205 11.6046 14.779 11.6046 14.6316C11.6046 14.5586 11.5903 14.4862 11.5624 14.4187C11.5345 14.3512 11.4935 14.2899 11.4419 14.2382C11.3903 14.1865 11.329 14.1455 11.2615 14.1176C11.194 14.0896 11.1217 14.0752 11.0486 14.0752H9.06018L10.4575 12.8499C10.7069 12.6308 10.9169 12.4352 11.0875 12.263Z" fill="white"/>
<path d="M16.2186 13.1173V12.1521C16.2184 11.9931 16.1552 11.8406 16.0427 11.7282C15.9301 11.6158 15.7776 11.5526 15.6186 11.5526C15.4595 11.5526 15.3071 11.6158 15.1946 11.7282C15.0822 11.8406 15.019 11.9931 15.019 12.1521V13.1173H13.6554L15.2154 9.81121C15.2595 9.71776 15.2793 9.61469 15.2728 9.51157C15.2664 9.40845 15.234 9.30862 15.1787 9.22136C15.1234 9.13409 15.0469 9.06223 14.9564 9.01243C14.8659 8.96263 14.7642 8.93652 14.6609 8.93652C14.5447 8.93656 14.4309 8.96963 14.3328 9.03187C14.2347 9.09412 14.1564 9.18298 14.1068 9.28809L12.3861 12.9345C12.3292 13.0548 12.2998 13.1863 12.2998 13.3193C12.2998 13.5584 12.3948 13.7877 12.5638 13.9567C12.7329 14.1258 12.9621 14.2207 13.2012 14.2207H15.02V14.5957C15.02 14.7547 15.0831 14.9072 15.1956 15.0197C15.308 15.1321 15.4605 15.1953 15.6195 15.1953C15.7785 15.195 15.931 15.1316 16.0433 15.019C16.1556 14.9064 16.2187 14.7539 16.2186 14.5948V14.2198H16.2228C16.3691 14.2198 16.5094 14.1617 16.6129 14.0582C16.7164 13.9547 16.7745 13.8144 16.7745 13.6681C16.7745 13.5218 16.7164 13.3814 16.6129 13.278C16.5094 13.1745 16.3691 13.1164 16.2228 13.1164L16.2186 13.1173Z" fill="white"/>
</g>
<defs>
<clipPath id="clip0_2774_125596">
<rect width="24" height="24" fill="white"/>
</clipPath>
</defs>
</svg>
